<?xml version="1.0" encoding="UTF-8"?>
<svg width="40px" height="40px" viewBox="0 0 40 40" version="1.1" xmlns="http://www.w3.org/2000/svg" xmlns:xlink="http://www.w3.org/1999/xlink">
    <!-- Generator: Sketch 53.2 (72643) - https://sketchapp.com -->
    <title>Artboard</title>
    <desc>Created with Sketch.</desc>
    <g id="Artboard" stroke="none" stroke-width="1" fill="none" fill-rule="evenodd" opacity="0.100000001">
        <path d="M35.02,23.9143758 L35.02,8.95 L5.98,8.95 L5.98,23.3998574 L14.2287551,16.8300453 C14.9919684,16.2221756 16.2176323,16.2516567 16.9533174,16.888261 L24.3394228,23.2796178 L28.1050192,20.1259337 C28.8676738,19.487211 30.0810928,19.5001867 30.8214618,20.154511 L35.02,23.9143758 Z M35.0199994,26.4896152 L29.4532032,21.5565743 L25.84266,24.5804016 L28.061024,26.5 L25.1384259,26.5 L15.5599928,18.2776353 L5.98,25.9077263 L5.98,31.05 L35.02,31.05 L35.02,26.4896149 Z M5.63647513,7 L35.3635249,7 C36.2487458,7 37,7.78184763 37,8.74630556 L37,31.2536944 C37,32.2218716 36.2673251,33 35.3635249,33 L5.63647513,33 C4.7512542,33 4,32.2181524 4,31.2536944 L4,8.74630556 C4,7.77812836 4.73267487,7 5.63647513,7 Z" id="Combined-Shape" fill="#000000" fill-rule="nonzero"></path>
    </g>
</svg>